<svg width="24" height="24" viewBox="0 0 24 24" fill="none" xmlns="http://www.w3.org/2000/svg">
<path d="M21.3798 5.75992C21.3457 5.63223 21.2866 5.51257 21.2059 5.40786C21.1252 5.30316 21.0246 5.21549 20.9098 5.14992L15.7098 2.14992C15.5963 2.08339 15.4708 2.03992 15.3404 2.022C15.21 2.00409 15.0774 2.01209 14.9501 2.04553C14.8228 2.07897 14.7034 2.13721 14.5987 2.2169C14.494 2.29659 14.406 2.39616 14.3398 2.50992L11.9998 6.56992L9.65985 2.50992C9.59369 2.39616 9.50572 2.29659 9.401 2.2169C9.29628 2.13721 9.17685 2.07897 9.04958 2.04553C8.92231 2.01209 8.78968 2.00409 8.65931 2.022C8.52894 2.03992 8.40339 2.08339 8.28985 2.14992L3.08985 5.14992C2.97508 5.21549 2.87445 5.30316 2.79378 5.40786C2.7131 5.51257 2.65399 5.63223 2.61985 5.75992C2.55367 6.01337 2.58957 6.28266 2.71985 6.50992L6.71985 13.3399C6.2736 14.1575 6.02689 15.0689 5.99985 15.9999C5.99747 16.9082 6.20133 17.8052 6.59607 18.6232C6.9908 19.4412 7.56611 20.159 8.27861 20.7223C8.9911 21.2856 9.8222 21.6798 10.7092 21.8752C11.5962 22.0706 12.5161 22.062 13.3993 21.8502C14.2825 21.6383 15.1061 21.2287 15.808 20.6522C16.5099 20.0757 17.0718 19.3474 17.4512 18.5222C17.8306 17.6969 18.0178 16.7963 17.9985 15.8882C17.9792 14.9801 17.754 14.0883 17.3398 13.2799L21.2398 6.51992C21.3124 6.40886 21.3622 6.28447 21.3862 6.15399C21.4103 6.02351 21.4081 5.88955 21.3798 5.75992ZM4.99985 6.37992L8.45985 4.37992L11.6798 9.99992C10.3073 10.0847 9.00664 10.6431 7.99985 11.5799L4.99985 6.37992ZM11.9998 19.9999C10.939 19.9999 9.92157 19.5785 9.17142 18.8283C8.42128 18.0782 7.99985 17.0608 7.99985 15.9999C7.99985 14.9391 8.42128 13.9216 9.17142 13.1715C9.92157 12.4213 10.939 11.9999 11.9998 11.9999C13.0607 11.9999 14.0781 12.4213 14.8283 13.1715C15.5784 13.9216 15.9998 14.9391 15.9998 15.9999C15.9998 17.0608 15.5784 18.0782 14.8283 18.8283C14.0781 19.5785 13.0607 19.9999 11.9998 19.9999ZM15.9998 11.5499C15.4569 11.054 14.8261 10.664 14.1398 10.3999L13.1598 8.56992L15.5798 4.37992L19.0399 6.37992L15.9998 11.5499Z" fill="#212329"/>
</svg>
